<svg width="302" height="81" fill="none" xmlns="http://www.w3.org/2000/svg"><path d="M135.232 27.848v-2.712c-.496.096-1.088.208-1.776.336-.688.128-1.392.264-2.112.408l-2.04.36c-.64.112-1.168.192-1.584.24l-.456-2.352c.272-.032.592-.072.96-.12.384-.048.792-.096 1.224-.144V16.4h-2.136v-2.136h21.912V16.4h-11.256v9a13.438 13.438 0 001.92-.96c.624-.368 1.2-.776 1.728-1.224-.448-.56-.848-1.16-1.2-1.8a8.652 8.652 0 01-.792-2.088h-1.08v-2.136h8.64l.912.744a13.136 13.136 0 01-1.2 2.808c-.496.88-1.072 1.72-1.728 2.52.656.464 1.344.872 2.064 1.224.72.336 1.424.6 2.112.792-.256.256-.528.616-.816 1.08-.272.48-.472.872-.6 1.176a12.241 12.241 0 01-2.256-.984 12.785 12.785 0 01-2.256-1.536 15.952 15.952 0 01-3.936 2.544 42.52 42.52 0 01-.744-1.104c-.272-.416-.528-.736-.768-.96v2.352h-2.736zm-4.416-14.4v-7.2h14.952v7.2h-14.952zm2.712-1.848h9.552v-.912h-9.552v.912zm0-2.664h9.552v-.84h-9.552v.84zm-1.32 14.544c.56-.08 1.096-.152 1.608-.216.528-.064 1-.128 1.416-.192v-.96h-3.024v1.368zm0-3.144h3.024v-1.104h-3.024v1.104zm0-2.856h3.024V16.4h-3.024v1.08zm11.112 4.032c.304-.352.576-.712.816-1.08.24-.368.448-.736.624-1.104h-2.688a7.643 7.643 0 001.248 2.184zm10.944 6.192a6.55 6.55 0 00-.6-.672c-.256-.24-.52-.472-.792-.696a4.073 4.073 0 00-.744-.504c1.424-.976 2.528-2.104 3.312-3.384.784-1.28 1.272-2.832 1.464-4.656H152.8v-2.544h4.2v-3.552h-.888c-.496 1.088-1.008 1.984-1.536 2.688a7.23 7.23 0 00-1.152-.72 6.66 6.66 0 00-1.248-.552c.336-.432.672-.952 1.008-1.56.336-.624.64-1.272.912-1.944.272-.688.504-1.36.696-2.016.208-.672.352-1.272.432-1.8l2.736.648a22.472 22.472 0 01-.768 2.664h4.896V7.04h12.024v2.448h-12v2.208h-2.496v3.552h3.024v2.544h-3.096l-.048.192v.192c.288.592.648 1.2 1.08 1.824a16.73 16.73 0 001.392 1.752 13.76 13.76 0 001.488 1.344c-.272.16-.576.376-.912.648a11.41 11.41 0 00-.888.792h3.696a14.326 14.326 0 00-.6-1.344c-.24-.528-.496-1.04-.768-1.536s-.52-.896-.744-1.2l2.328-1.176c.192.304.44.72.744 1.248s.6 1.072.888 1.632c.288.544.504 1 .648 1.368l-1.968 1.008h2.544c.272-.48.544-1.04.816-1.68.272-.64.52-1.288.744-1.944a13.25 13.25 0 00.48-1.728l2.712.72c-.112.416-.272.896-.48 1.44a45.043 45.043 0 01-.672 1.656 23.122 23.122 0 01-.696 1.536h3.264v2.52h-13.608V24.68c-.4-.416-.792-.88-1.176-1.392a23.69 23.69 0 01-1.104-1.608 12.706 12.706 0 01-1.752 3.288 15.471 15.471 0 01-2.688 2.736zm9.072-9.072v-7.488h9.888v7.488h-9.888zm2.736-2.376h4.416V13.52h-4.416v2.736z" fill="#0BA29B"/><path d="M90.916 74.044a45.172 45.172 0 00-.72-1.728 115.7 115.7 0 00-.828-1.908c-.816.264-1.74.552-2.772.864-1.008.312-2.052.624-3.132.936a66.057 66.057 0 01-3.06.828c-.984.264-1.836.48-2.556.648L76.66 69.58a50.41 50.41 0 001.08-.18c.408-.096.84-.192 1.296-.288v-24.66h14.148v16.56h-9.828v7.092a147.64 147.64 0 004.212-1.116 50.19 50.19 0 00-1.008-1.656 18.697 18.697 0 00-1.008-1.44l3.564-1.98c.984 1.344 1.98 2.916 2.988 4.716a43.992 43.992 0 012.628 5.472c-.552.216-1.2.516-1.944.9-.72.36-1.344.708-1.872 1.044zm4.536 1.512v-31.14h13.464v22.752c0 1.344-.36 2.328-1.08 2.952-.696.6-1.824.9-3.384.9h-2.52c-.048-.6-.168-1.344-.36-2.232a24.01 24.01 0 00-.504-2.196h2.196c.504 0 .864-.084 1.08-.252.24-.168.36-.492.36-.972V48.304h-5.04v27.252h-4.212zM83.356 57.304h5.688v-2.952h-5.688v2.952zm0-6.372h5.688V48.16h-5.688v2.772zm37.116 22.5V45.208h22.896v28.224h-22.896zm4.572-4.104h13.752v-8.316h-13.752v8.316zm0-12.24h13.752v-7.776h-13.752v7.776zm49.968 18.36c-.024-.408-.096-.9-.216-1.476a20.418 20.418 0 00-.36-1.656c-.12-.552-.252-.996-.396-1.332h3.384c.504 0 .864-.072 1.08-.216.216-.168.324-.492.324-.972V56.224h-7.92v-3.276h-1.944c-.6 3.48-1.764 6.828-3.492 10.044a66.287 66.287 0 013.096 3.996 54.331 54.331 0 012.592 3.852c-.36.144-.78.372-1.26.684-.48.312-.948.636-1.404.972-.432.312-.78.6-1.044.864a27.886 27.886 0 00-1.944-3.204 72.543 72.543 0 00-2.376-3.384c-2.256 3.168-4.848 5.748-7.776 7.74a13.157 13.157 0 00-1.404-1.62c-.552-.6-1.092-1.056-1.62-1.368 1.536-.912 3-2.052 4.392-3.42a26.665 26.665 0 003.78-4.68 55.235 55.235 0 00-3.168-3.456 40.77 40.77 0 00-3.024-2.88l2.808-2.592a38.124 38.124 0 012.664 2.376 61.41 61.41 0 012.772 2.808c.96-2.064 1.68-4.308 2.16-6.732h-10.98v-3.78h6.912V43.12h4.68v6.048h6.372v3.276h7.128V43.3h4.392v9.144h3.852v3.78h-3.852v15.372c0 1.344-.384 2.316-1.152 2.916-.768.624-1.932.936-3.492.936h-3.564zm-1.512-8.46c-.264-.624-.66-1.38-1.188-2.268a40.236 40.236 0 00-1.656-2.664c-.6-.888-1.176-1.62-1.728-2.196l3.276-2.268a32.342 32.342 0 011.872 2.304c.624.816 1.2 1.644 1.728 2.484.552.816.996 1.572 1.332 2.268-.528.24-1.152.588-1.872 1.044-.696.432-1.284.864-1.764 1.296zm20.988 8.28a9.609 9.609 0 00-1.224-.612 95.897 95.897 0 01-1.476-.576c-.456-.168-.828-.276-1.116-.324 1.056-1.8 1.848-3.96 2.376-6.48.552-2.52.828-5.424.828-8.712v-11.7h12.744v-4.068h4.608v4.068h12.528v3.888h-25.668v7.884c0 3.648-.312 6.864-.936 9.648-.624 2.784-1.512 5.112-2.664 6.984zm15.012.108c-1.416 0-2.424-.216-3.024-.648-.576-.432-.864-1.164-.864-2.196V57.268h4.248v13.068c0 .648.384.972 1.152.972h2.052c.552 0 .972-.108 1.26-.324.288-.24.504-.648.648-1.224.144-.6.264-1.428.36-2.484.312.168.72.348 1.224.54.504.168 1.02.336 1.548.504.528.168.984.3 1.368.396-.264 1.824-.6 3.216-1.008 4.176-.408.96-.96 1.608-1.656 1.944-.672.36-1.596.54-2.772.54H209.5zm11.772-3.384a50.921 50.921 0 00-1.476-3.924 48.688 48.688 0 00-1.836-3.888c-.624-1.224-1.224-2.244-1.8-3.06l3.852-1.836c.456.648.936 1.428 1.44 2.34.504.888.996 1.836 1.476 2.844.48.984.924 1.956 1.332 2.916.408.96.744 1.836 1.008 2.628-.528.168-1.188.456-1.98.864a33.04 33.04 0 00-2.016 1.116zm-20.628.504c-.456-.384-1.044-.756-1.764-1.116-.696-.384-1.284-.648-1.764-.792.552-.912 1.08-2.028 1.584-3.348.504-1.32.948-2.676 1.332-4.068.384-1.392.648-2.64.792-3.744l3.996 1.044a30.854 30.854 0 01-.936 4.104c-.408 1.44-.9 2.856-1.476 4.248a29.159 29.159 0 01-1.764 3.672zm13.392-11.916c-.456-.648-1.044-1.356-1.764-2.124a33.887 33.887 0 00-2.304-2.232 19.483 19.483 0 00-2.268-1.8l2.844-2.988c.672.48 1.404 1.056 2.196 1.728a49.27 49.27 0 012.412 2.124 28.707 28.707 0 012.088 2.16c-.336.24-.72.564-1.152.972-.432.384-.84.768-1.224 1.152-.36.384-.636.72-.828 1.008z" fill="#F90"/></svg>