<svg width="301" height="81" fill="none" xmlns="http://www.w3.org/2000/svg"><path d="M54.164 23.168a13.02 13.02 0 00-.888-1.224c-.368-.48-.712-.848-1.032-1.104 1.712-.8 3.32-1.808 4.824-3.024a28.628 28.628 0 004.104-4.008 35.828 35.828 0 00-2.136-1.512c-.688-.448-1.304-.8-1.848-1.056l1.728-2.04a17.58 17.58 0 011.896 1.032 44.56 44.56 0 012.04 1.344 22.981 22.981 0 001.824-3.216 20.604 20.604 0 001.248-3.264l2.808.96a29.44 29.44 0 01-3.552 7.224c.72.576 1.4 1.152 2.04 1.728.64.56 1.184 1.088 1.632 1.584-.224.192-.48.44-.768.744-.272.288-.536.584-.792.888a9.498 9.498 0 00-.624.768 19.63 19.63 0 00-1.44-1.584 31.87 31.87 0 00-1.824-1.728 30.994 30.994 0 01-4.224 4.224 26.452 26.452 0 01-5.016 3.264zm22.944-7.728a13.5 13.5 0 00.024-.912v-1.152a13.5 13.5 0 00-.024-.912c.304.016.84.032 1.608.048a517.4 517.4 0 002.784.048l3.48.048h3.696c1.232 0 2.392-.008 3.48-.024a528.99 528.99 0 002.856-.048c.8-.016 1.368-.04 1.704-.072-.016.208-.032.504-.048.888v1.176c.016.384.024.68.024.888-.4-.016-.992-.032-1.776-.048-.768-.016-1.672-.032-2.712-.048-1.024-.016-2.12-.024-3.288-.024h-3.504c-1.184 0-2.312.008-3.384.024s-2.04.032-2.904.048c-.848.016-1.52.04-2.016.072zm27.6 7.824c-.176-.352-.472-.768-.888-1.248-.4-.48-.792-.848-1.176-1.104 2.032-.816 3.704-1.96 5.016-3.432 1.328-1.488 2.304-3.36 2.928-5.616l-6.48.192-.216-2.808c.208.016.664.024 1.368.024a374.87 374.87 0 012.592-.048c1.024-.016 2.112-.04 3.264-.072.224-1.488.32-3.12.288-4.896l2.976.024c.016.848 0 1.672-.048 2.472s-.12 1.576-.216 2.328c1.12-.032 2.168-.064 3.144-.096s1.792-.064 2.448-.096a41.053 41.053 0 001.272-.072c0 .672-.04 1.48-.12 2.424-.08.944-.184 1.92-.312 2.928a83.967 83.967 0 01-.408 2.808c-.144.88-.288 1.592-.432 2.136-.272 1.104-.64 1.944-1.104 2.52-.448.576-1.08.968-1.896 1.176-.8.192-1.872.28-3.216.264-.064-.384-.192-.88-.384-1.488-.176-.608-.4-1.112-.672-1.512 1.024.016 1.824-.008 2.4-.072.576-.064 1.008-.224 1.296-.48.304-.256.536-.648.696-1.176.16-.496.312-1.128.456-1.896.144-.768.272-1.576.384-2.424.112-.864.192-1.672.24-2.424l-4.272.144c-.672 2.736-1.76 5.056-3.264 6.96-1.488 1.904-3.376 3.424-5.664 4.56zm23.28-7.824a13.5 13.5 0 00.024-.912v-1.152a13.5 13.5 0 00-.024-.912c.304.016.84.032 1.608.048a517.4 517.4 0 002.784.048l3.48.048h3.696c1.232 0 2.392-.008 3.48-.024a528.99 528.99 0 002.856-.048c.8-.016 1.368-.04 1.704-.072-.016.208-.032.504-.048.888v1.176c.016.384.024.68.024.888-.4-.016-.992-.032-1.776-.048-.768-.016-1.672-.032-2.712-.048-1.024-.016-2.12-.024-3.288-.024h-3.504c-1.184 0-2.312.008-3.384.024s-2.04.032-2.904.048c-.848.016-1.52.04-2.016.072zm30.6 5.448V8.768h3.576l.216-1.464h-9.888v-2.4h10.248l.288-2.04 3.024.168-.264 1.872h8.112v2.4h-8.472l-.216 1.464h5.808v12.12h-12.432zm-4.68 3.648V9.368h2.856V22.04h16.8v2.496h-19.656zm7.656-5.832h6.504v-1.248h-6.504v1.248zm0-3.288h6.504v-1.224h-6.504v1.224zm0-3.24h6.504v-1.224h-6.504v1.224zm23.712 11.856v-2.64h5.376v-8.544h-6.12V10.16h6.12V3.104h2.928v7.056h5.904v2.688h-5.904v8.544h5.256v2.64h-13.56zm-4.416.72V12.824c-.304.432-.608.84-.912 1.224-.304.368-.6.704-.888 1.008-.256-.288-.608-.592-1.056-.912a9.045 9.045 0 00-1.152-.744c.432-.384.888-.896 1.368-1.536.48-.64.96-1.352 1.44-2.136A35.3 35.3 0 00182.084 5c.304-.736.52-1.368.648-1.896l2.712.816c-.176.64-.416 1.32-.72 2.04s-.64 1.448-1.008 2.184v16.608h-2.856zm23.592.12a7.686 7.686 0 00-.84-1.296 6.548 6.548 0 00-1.056-1.128c1.968-.912 3.608-2.032 4.92-3.36a15.207 15.207 0 003.12-4.464 17.742 17.742 0 001.512-5.232l1.704.288a52.674 52.674 0 01-.168-1.656c-.032-.56-.04-1.136-.024-1.728h-5.568V3.608h8.52c-.208 2.816-.072 5.384.408 7.704.48 2.32 1.416 4.4 2.808 6.24 1.408 1.84 3.376 3.464 5.904 4.872-.352.272-.736.648-1.152 1.128-.416.48-.76.92-1.032 1.32a23.375 23.375 0 01-5.592-5.064c-1.6-2-2.768-4.376-3.504-7.128a18.738 18.738 0 01-2.112 4.944 19.14 19.14 0 01-3.384 4.152 19.345 19.345 0 01-4.464 3.096zm40.584-.936c-1.664-.192-3.136-.68-4.416-1.464-1.28-.784-2.28-1.8-3-3.048-.704-1.248-1.056-2.672-1.056-4.272 0-1.152.272-2.328.816-3.528.56-1.2 1.392-2.264 2.496-3.192-1.28.208-2.56.432-3.84.672-1.264.24-2.416.464-3.456.672a50.659 50.659 0 00-2.376.528l-.648-3.096a39.135 39.135 0 002.184-.216c.944-.112 2-.248 3.168-.408 1.184-.176 2.4-.36 3.648-.552a281.98 281.98 0 003.648-.624 108.2 108.2 0 003.168-.6c.944-.208 1.68-.392 2.208-.552l.768 2.928c-.256.016-.568.048-.936.096-.352.048-.752.104-1.2.168-.88.112-1.72.384-2.52.816-.8.432-1.52.992-2.16 1.68a8.154 8.154 0 00-1.488 2.352 7.328 7.328 0 00-.552 2.856c0 1.232.312 2.256.936 3.072.624.816 1.472 1.456 2.544 1.92 1.088.448 2.304.752 3.648.912-.24.24-.472.544-.696.912a8.592 8.592 0 00-.576 1.056 4.74 4.74 0 00-.312.912zm4.176-11.016a10.624 10.624 0 00-1.224-1.584c-.496-.56-.952-1.008-1.368-1.344l1.296-1.08c.24.192.528.472.864.84.352.368.696.744 1.032 1.128.336.368.592.688.768.96l-1.368 1.08zm-2.16 1.824a10.71 10.71 0 00-1.2-1.608 13.716 13.716 0 00-1.368-1.368l1.32-1.056c.24.192.528.472.864.84.336.368.664.744.984 1.128.336.384.592.704.768.96l-1.368 1.104z" fill="#0BA29B"/><path d="M128.454 78.52c-2.149 0-4.039-.468-5.668-1.404-1.629-.936-2.912-2.253-3.848-3.952-.901-1.699-1.352-3.657-1.352-5.876 0-1.837.468-3.501 1.404-4.992.971-1.525 2.149-2.67 3.536-3.432a9.86 9.86 0 01-2.912-3.068c-.763-1.283-1.144-2.773-1.144-4.472 0-2.045.416-3.83 1.248-5.356.867-1.56 2.045-2.773 3.536-3.64 1.525-.867 3.259-1.3 5.2-1.3 1.976 0 3.709.433 5.2 1.3a8.942 8.942 0 013.536 3.64c.867 1.525 1.3 3.31 1.3 5.356 0 1.699-.399 3.19-1.196 4.472-.763 1.248-1.699 2.27-2.808 3.068 1.387.763 2.548 1.907 3.484 3.432.936 1.49 1.404 3.155 1.404 4.992 0 2.253-.468 4.23-1.404 5.928a10.148 10.148 0 01-3.848 3.9c-1.629.936-3.519 1.404-5.668 1.404zm0-5.304c1.733 0 3.051-.485 3.952-1.456.936-1.005 1.404-2.513 1.404-4.524 0-1.872-.468-3.345-1.404-4.42-.901-1.11-2.219-1.664-3.952-1.664-1.699 0-3.016.555-3.952 1.664-.901 1.075-1.352 2.548-1.352 4.42 0 3.987 1.768 5.98 5.304 5.98zm0-16.484c1.456 0 2.548-.468 3.276-1.404.763-.936 1.144-2.253 1.144-3.952 0-1.699-.416-2.964-1.248-3.796-.832-.832-1.889-1.248-3.172-1.248-1.283 0-2.34.416-3.172 1.248-.832.832-1.248 2.097-1.248 3.796 0 1.699.364 3.016 1.092 3.952.763.936 1.872 1.404 3.328 1.404zm26.302 21.788c-2.773 0-4.94-.693-6.5-2.08-1.56-1.387-2.669-3.467-3.328-6.24-.624-2.773-.936-6.24-.936-10.4s.312-7.627.936-10.4c.659-2.808 1.768-4.905 3.328-6.292 1.56-1.387 3.727-2.08 6.5-2.08 2.774 0 4.923.693 6.448 2.08 1.56 1.387 2.652 3.484 3.276 6.292.659 2.773.988 6.24.988 10.4s-.329 7.627-.988 10.4c-.624 2.773-1.716 4.853-3.276 6.24-1.525 1.387-3.674 2.08-6.448 2.08zm0-5.304c1.283 0 2.288-.399 3.016-1.196.763-.832 1.318-2.219 1.664-4.16.347-1.941.52-4.628.52-8.06 0-3.467-.173-6.17-.52-8.112-.346-1.941-.901-3.31-1.664-4.108-.728-.832-1.733-1.248-3.016-1.248-1.282 0-2.305.416-3.068 1.248-.762.797-1.317 2.167-1.664 4.108-.312 1.941-.468 4.645-.468 8.112 0 3.432.156 6.119.468 8.06.347 1.941.902 3.328 1.664 4.16.763.797 1.786 1.196 3.068 1.196zM98.214 58.386v-2.034c-.372.072-.816.156-1.332.252-.516.096-1.044.198-1.584.306l-1.53.27c-.48.084-.876.144-1.188.18l-.342-1.764c.204-.024.444-.054.72-.09.288-.036.594-.072.918-.108V49.8h-1.602v-1.602h16.434V49.8h-8.442v6.75c.504-.204.984-.444 1.44-.72.468-.276.9-.582 1.296-.918a9.434 9.434 0 01-.9-1.35 6.49 6.49 0 01-.594-1.566h-.81v-1.602h6.48l.684.558a9.852 9.852 0 01-.9 2.106c-.372.66-.804 1.29-1.296 1.89a11.18 11.18 0 001.548.918c.54.252 1.068.45 1.584.594a4.553 4.553 0 00-.612.81c-.204.36-.354.654-.45.882a9.18 9.18 0 01-1.692-.738 9.588 9.588 0 01-1.692-1.152 11.964 11.964 0 01-2.952 1.908 31.89 31.89 0 01-.558-.828 3.95 3.95 0 00-.576-.72v1.764h-2.052zm-3.312-10.8v-5.4h11.214v5.4H94.902zm2.034-1.386h7.164v-.684h-7.164v.684zm0-1.998h7.164v-.63h-7.164v.63zm-.99 10.908c.42-.06.822-.114 1.206-.162.396-.048.75-.096 1.062-.144v-.72h-2.268v1.026zm0-2.358h2.268v-.828h-2.268v.828zm0-2.142h2.268v-.81h-2.268v.81zm8.334 3.024a7.552 7.552 0 001.08-1.638h-2.016c.216.588.528 1.134.936 1.638zM93.372 78.422a7.872 7.872 0 00-.396-.684 10.018 10.018 0 00-.504-.738 3.78 3.78 0 00-.468-.54c1.332-.468 2.508-1.104 3.528-1.908 1.032-.804 1.866-1.722 2.502-2.754a8.383 8.383 0 001.224-3.276h-6.732v-2.07h6.822v-4.446h2.268v4.446h6.84v2.07h-6.732c.192 1.128.618 2.214 1.278 3.258.66 1.032 1.5 1.95 2.52 2.754a12.378 12.378 0 003.456 1.89c-.156.156-.33.354-.522.594-.18.24-.354.486-.522.738a8.077 8.077 0 00-.36.666 16.74 16.74 0 01-2.88-1.692 14.725 14.725 0 01-2.484-2.322 10.78 10.78 0 01-1.728-2.862 10.536 10.536 0 01-1.746 2.862 14.025 14.025 0 01-2.52 2.322 17.404 17.404 0 01-2.844 1.692zM185.108 57.828c-.972 0-1.758-.336-2.358-1.008-.588-.684-.882-1.602-.882-2.754s.294-2.064.882-2.736c.6-.672 1.386-1.008 2.358-1.008.972 0 1.752.336 2.34 1.008.588.672.882 1.584.882 2.736 0 1.152-.294 2.07-.882 2.754-.588.672-1.368 1.008-2.34 1.008zm-9.18-7.614c-.972 0-1.758-.336-2.358-1.008-.588-.672-.882-1.584-.882-2.736 0-1.152.294-2.064.882-2.736.6-.684 1.386-1.026 2.358-1.026.96 0 1.734.342 2.322 1.026.6.672.9 1.584.9 2.736 0 1.152-.3 2.064-.9 2.736-.588.672-1.362 1.008-2.322 1.008zm-.198 7.83l-1.026-.738 10.62-14.832 1.044.738-10.638 14.832zm.198-9.468c1.056 0 1.584-.702 1.584-2.106s-.528-2.106-1.584-2.106c-1.068 0-1.602.702-1.602 2.106s.534 2.106 1.602 2.106zm9.18 7.596c1.056 0 1.584-.702 1.584-2.106s-.528-2.106-1.584-2.106-1.584.702-1.584 2.106.528 2.106 1.584 2.106zM178.986 78.32c-1.266 0-2.4-.3-3.4-.9-.986-.6-1.76-1.447-2.32-2.54-.56-1.107-.84-2.4-.84-3.88 0-1.493.28-2.787.84-3.88.56-1.107 1.334-1.96 2.32-2.56 1-.613 2.134-.92 3.4-.92 1.267 0 2.387.307 3.36.92.987.6 1.76 1.453 2.32 2.56.574 1.093.86 2.387.86 3.88 0 1.48-.286 2.773-.86 3.88-.56 1.093-1.333 1.94-2.32 2.54-.973.6-2.093.9-3.36.9zm0-2.24c.84 0 1.567-.207 2.18-.62.614-.427 1.087-1.02 1.42-1.78.347-.773.52-1.667.52-2.68 0-1.027-.173-1.92-.52-2.68-.333-.773-.806-1.367-1.42-1.78-.613-.427-1.34-.64-2.18-.64-.826 0-1.553.213-2.18.64-.626.413-1.113 1.007-1.46 1.78-.333.76-.5 1.653-.5 2.68 0 1.013.167 1.907.5 2.68.347.76.834 1.353 1.46 1.78.627.413 1.354.62 2.18.62zm9.872 1.92V64h9.52v2.14h-7.22v3.64h6.6v2.16h-6.6V78h-2.3zm12.528 0V64h9.52v2.14h-7.22v3.64h6.6v2.16h-6.6V78h-2.3z" fill="#F90"/></svg>