<svg width="302" height="78" fill="none" xmlns="http://www.w3.org/2000/svg"><path d="M116.368 27.92a7.593 7.593 0 00-.384-1.416 5.957 5.957 0 00-.624-1.32c3.424-.208 6.216-.928 8.376-2.16a49.562 49.562 0 00-2.976-1.104c-.96-.336-1.84-.6-2.64-.792.272-.4.584-.888.936-1.464.352-.576.72-1.208 1.104-1.896h-5.448v-2.52h6.792c.416-.784.792-1.536 1.128-2.256.336-.72.6-1.336.792-1.848l2.976.864c-.208.464-.448.976-.72 1.536-.256.56-.536 1.128-.84 1.704h11.664v2.52h-4.992c-.624 1.76-1.416 3.256-2.376 4.488a86.624 86.624 0 013.24 1.536 40.394 40.394 0 012.928 1.584c-.304.272-.632.656-.984 1.152-.352.512-.632.976-.84 1.392a47.072 47.072 0 00-3.096-1.8 69.371 69.371 0 00-3.456-1.704c-1.28.96-2.792 1.712-4.536 2.256-1.728.544-3.736.96-6.024 1.248zm-.936-14.136v-5.28h8.448V5.768h3.24v2.736h8.544v5.256h-2.928v-2.784h-14.328v2.808h-2.976zm10.824 7.272a9.75 9.75 0 002.016-3.288h-4.752c-.224.4-.432.768-.624 1.104-.192.336-.36.616-.504.84.56.16 1.168.36 1.824.6.656.224 1.336.472 2.04.744zm23.736 6.144c-1.024 0-1.744-.16-2.16-.48-.416-.304-.624-.824-.624-1.56V12.368h2.976v11.328c0 .256.064.44.192.552.128.096.376.144.744.144h3.048c.656 0 1.104-.208 1.344-.624.256-.416.432-1.192.528-2.328.224.112.504.24.84.384a15.77 15.77 0 001.992.624c-.192 1.312-.432 2.312-.72 3-.288.672-.68 1.128-1.176 1.368-.496.256-1.16.384-1.992.384h-4.992zm-8.208-4.32a12.22 12.22 0 00-1.248-.744 9.047 9.047 0 00-1.344-.6c.336-.416.696-.936 1.08-1.56.384-.64.744-1.312 1.08-2.016.352-.72.664-1.416.936-2.088.272-.688.472-1.288.6-1.8l2.784.984A16.68 16.68 0 01145 17a40.94 40.94 0 01-.96 2.16c-.352.72-.728 1.408-1.128 2.064a15.55 15.55 0 01-1.128 1.656zm18.288-1.416a20.823 20.823 0 00-2.304-3.528 21.761 21.761 0 00-2.832-2.952l2.088-1.776a18.85 18.85 0 011.992 1.872 30.94 30.94 0 011.992 2.352 21.882 21.882 0 011.536 2.256c-.224.096-.504.264-.84.504-.336.224-.656.456-.96.696-.304.24-.528.432-.672.576zm-6.504-9.528a17.689 17.689 0 00-1.896-1.392 33.875 33.875 0 00-2.136-1.344 19.326 19.326 0 00-1.968-1.008l1.44-2.28c.64.272 1.352.632 2.136 1.08.8.432 1.568.88 2.304 1.344a17.54 17.54 0 011.8 1.272c-.176.192-.384.44-.624.744-.224.288-.432.576-.624.864a7.045 7.045 0 00-.432.72zm24.72 14.28a4.616 4.616 0 00-.36-.912 6.587 6.587 0 00-.624-1.008 4.57 4.57 0 00-.672-.816c2.192-.336 3.856-1.048 4.992-2.136 1.152-1.104 1.76-2.4 1.824-3.888.064-1.184-.152-2.24-.648-3.168a6.153 6.153 0 00-2.04-2.256A6.105 6.105 0 00177.952 11a33.655 33.655 0 01-.72 4.56 23.302 23.302 0 01-1.44 4.368c-.592 1.36-1.32 2.512-2.184 3.456-.656.704-1.296 1.112-1.92 1.224-.608.112-1.256.024-1.944-.264-.672-.288-1.264-.744-1.776-1.368a6.633 6.633 0 01-1.176-2.208 7.84 7.84 0 01-.336-2.76c.08-1.456.424-2.784 1.032-3.984a9.999 9.999 0 012.448-3.144c1.024-.88 2.2-1.544 3.528-1.992 1.328-.448 2.744-.632 4.248-.552a9.551 9.551 0 013.432.816 8.721 8.721 0 012.808 1.992c.816.832 1.44 1.8 1.872 2.904.448 1.104.632 2.312.552 3.624-.112 2.192-.88 4.032-2.304 5.52-1.424 1.472-3.352 2.48-5.784 3.024zm-7.8-4.848c.176.128.36.192.552.192.192 0 .384-.096.576-.288.576-.576 1.104-1.392 1.584-2.448.496-1.056.904-2.248 1.224-3.576a23.04 23.04 0 00.648-4.056 7.508 7.508 0 00-2.952 1.392 7.456 7.456 0 00-2.016 2.448c-.496.944-.776 1.984-.84 3.12-.032.752.064 1.408.288 1.968.24.544.552.96.936 1.248z" fill="#0BA29B"/><path d="M173.223 75V45.672l-6.344 4.16-2.964-4.732 10.608-6.552h4.264V75h-5.564zm24.969.52c-2.773 0-4.94-.693-6.5-2.08-1.56-1.387-2.669-3.467-3.328-6.24-.624-2.773-.936-6.24-.936-10.4s.312-7.627.936-10.4c.659-2.808 1.768-4.905 3.328-6.292 1.56-1.387 3.727-2.08 6.5-2.08s4.923.693 6.448 2.08c1.56 1.387 2.652 3.484 3.276 6.292.659 2.773.988 6.24.988 10.4s-.329 7.627-.988 10.4c-.624 2.773-1.716 4.853-3.276 6.24-1.525 1.387-3.675 2.08-6.448 2.08zm0-5.304c1.283 0 2.288-.399 3.016-1.196.763-.832 1.317-2.219 1.664-4.16.347-1.941.52-4.628.52-8.06 0-3.467-.173-6.17-.52-8.112-.347-1.941-.901-3.31-1.664-4.108-.728-.832-1.733-1.248-3.016-1.248s-2.305.416-3.068 1.248c-.763.797-1.317 2.167-1.664 4.108-.312 1.941-.468 4.645-.468 8.112 0 3.432.156 6.119.468 8.06.347 1.941.901 3.328 1.664 4.16.763.797 1.785 1.196 3.068 1.196zM229.304 75.072v-6.076h-12.628v-2.912h4.732V59.14h7.896v-3.304h-5.684a29.69 29.69 0 01-2.184 3.024 24.14 24.14 0 01-2.408 2.548 11.998 11.998 0 00-1.176-1.064 7.56 7.56 0 00-1.484-.98 19.974 19.974 0 002.912-2.968 25.353 25.353 0 002.38-3.584c.691-1.25 1.204-2.427 1.54-3.528l3.164.98a25.828 25.828 0 01-1.092 2.576h15.736v2.996h-8.232v3.304h6.244v2.912h-6.244v4.032h9.436v2.912h-9.436v6.076h-3.472zm-4.452-8.988h4.452v-4.032h-4.452v4.032z" fill="#F90"/><path d="M57.588 72.904v-2.76h9.192V58.192h-7.704v-2.76h18.528v2.76H69.9v11.952h9.216v2.76H57.588zm32.376 1.92a7.48 7.48 0 00-.24-1.32c-.112-.48-.24-.88-.384-1.2h2.112c.336 0 .576-.048.72-.144.144-.112.216-.328.216-.648v-.744h-7.776v-2.064h7.776v-1.008h-9.672v-1.872h9.672v-.96h-7.8v-1.848h7.8v-.936h-6.216V57.4h6.216v-.864h-8.976v-2.064h8.976v-1.584h2.88v1.584h8.952v2.064h-8.952v.864h6.144v4.68h-6.144v.936h7.44v2.808h2.184v1.872h-2.184v3.072h-7.44v1.536c0 .88-.256 1.52-.768 1.92-.496.4-1.256.6-2.28.6h-2.256zm5.304-6.12h4.656v-1.008h-4.656v1.008zm0-2.88h4.656v-.96h-4.656v.96zm-6.456-5.568h3.576v-1.032h-3.576v1.032zm6.456 0h3.504v-1.032h-3.504v1.032zm15.696 14.496V62.944c-.24.352-.48.68-.72.984-.24.304-.488.592-.744.864a6.347 6.347 0 00-1.008-.84 6.251 6.251 0 00-1.176-.696c.56-.56 1.12-1.28 1.68-2.16a28.51 28.51 0 001.56-2.856 27.659 27.659 0 001.248-2.928c.336-.944.56-1.752.672-2.424l2.736.624c-.16.688-.36 1.4-.6 2.136-.24.736-.52 1.48-.84 2.232v13.272a22.293 22.293 0 002.016-1.32 31.886 31.886 0 002.232-1.776c.736-.64 1.36-1.256 1.872-1.848h-5.232v-2.544h6.192V61.72h-4.656v-8.088h12.048v8.088h-4.608v1.944h6.216v2.544h-5.28c.416.448.896.92 1.44 1.416a31.936 31.936 0 003.432 2.616c.56.368 1.056.664 1.488.888a8.06 8.06 0 00-.96 1.056c-.32.432-.584.816-.792 1.152-.88-.528-1.816-1.2-2.808-2.016a29.881 29.881 0 01-2.736-2.544v5.976h-2.784v-6.024a25.1 25.1 0 01-2.736 2.616c-.992.832-1.936 1.52-2.832 2.064a8.786 8.786 0 00-.696-.96 6.98 6.98 0 00-.816-.936v3.24h-2.808zm8.208-15.552h6.12v-3.048h-6.12V59.2zm15.072 15.576V53.584h6.984l.888.672c-.016.064-.04.136-.072.216-.032.08-.064.168-.096.264h4.8v-1.944h2.808v1.944h5.232v2.16H152.7c-.096.24-.216.544-.36.912-.144.352-.272.648-.384.888h3.672v2.208h-14.88v-2.208h3.576a37.1 37.1 0 01-.36-.912 6.982 6.982 0 00-.384-.888h-1.728v-1.92c-.176.464-.4 1-.672 1.608-.256.608-.52 1.224-.792 1.848a47.235 47.235 0 01-.72 1.632c-.224.48-.384.832-.48 1.056.72.672 1.304 1.376 1.752 2.112.448.736.672 1.536.672 2.4 0 1.568-.328 2.704-.984 3.408-.656.704-1.504 1.056-2.544 1.056h-.72a9.193 9.193 0 00-.216-1.272c-.112-.48-.232-.896-.36-1.248v7.2h-2.544zm12.504.072v-2.784h-6.096v-2.256h6.096v-.96h-4.416v-7.152h11.712v7.152h-4.488v.96h6.096v2.256h-6.096v2.784h-2.808zm-9.96-7.488h.792c.48 0 .824-.16 1.032-.48.208-.32.312-.848.312-1.584 0-.688-.192-1.352-.576-1.992-.368-.64-.888-1.24-1.56-1.8v5.856zm8.208-.336h6.36v-.912h-6.36v.912zm0-2.592h6.36v-.888h-6.36v.888zm-8.208-3.552c.144-.32.312-.712.504-1.176.192-.48.384-.976.576-1.488.208-.512.384-.976.528-1.392.16-.416.264-.728.312-.936h-1.92v4.992zm10.464-2.184h1.776c.096-.224.216-.52.36-.888s.264-.672.36-.912h-3.192c.112.24.232.536.36.888.128.352.24.656.336.912z" fill="#0BA29B"/></svg>