<svg width="467" height="83" viewBox="0 0 467 83" fill="none" xmlns="http://www.w3.org/2000/svg">
<g clip-path="url(#clip0_6002_7)">
<path d="M30.4553 11.4435C30.4553 11.4435 12.8642 35.8646 12.8642 51.6092C12.8642 51.6092 11.3741 72.6086 33.8788 72.8997C33.8788 72.8997 47.8746 72.7791 53.0604 57.5158C53.0604 57.5158 48.3329 75.5052 31.3271 75.043C6.52249 74.3692 6.89414 51.1141 6.89414 51.1141C6.89378 23.5261 34.2941 0 34.2941 0C34.2941 0 33.9792 5.12284 33.9792 8.71764C33.9792 15.3318 37.8419 22.5856 40.1815 26.5144C40.1815 26.5144 48.2253 38.9453 51.8568 45.0788C51.8568 45.0788 30.7992 19.565 30.4553 11.4435Z" fill="#F6B85A"/>
<path d="M12.412 77.247L13.5637 74.0599L14.139 74.4317L13.311 76.5974L15.0669 75.0317L15.7351 75.4643L14.9543 77.7059L16.6499 76.0558L17.2153 76.4215L14.7235 78.7425L14.1276 78.3567L14.9312 75.9366L13.0214 77.6412L12.412 77.247Z" fill="#E83835"/>
<path d="M18.9703 80.7434L18.3029 80.4504L18.3428 79.6501L17.1282 79.118L16.572 79.6922L15.9215 79.4068L18.4485 76.914L19.0973 77.1983L18.9703 80.7434ZM18.3722 79.0566L18.4521 77.7558L17.5431 78.6934L18.3722 79.0566Z" fill="#E83835"/>
<path d="M20.4697 81.2135L21.2854 78.6001L20.3436 78.3112L20.5102 77.7792L23.0322 78.5526L22.866 79.0846L21.9266 78.7967L21.1105 81.4099L20.4699 81.2137L20.4697 81.2135Z" fill="#E83835"/>
<path d="M22.8864 81.902L23.5546 78.6761L25.9677 79.1667L25.8544 79.7123L24.0983 79.3555L23.9509 80.0707L25.5845 80.4029L25.4722 80.9463L23.8379 80.6141L23.6562 81.4918L25.4747 81.8618L25.362 82.4052L22.8866 81.9022L22.8864 81.902Z" fill="#E83835"/>
<path d="M26.3348 82.5544L26.7043 79.2821L28.1073 79.4372C28.46 79.4761 28.7133 79.5343 28.8663 79.6106C29.0198 79.6869 29.136 79.8058 29.2148 79.9669C29.2944 80.1282 29.3226 80.3052 29.3008 80.4985C29.273 80.7439 29.1774 80.939 29.0136 81.0826C28.8503 81.2262 28.6206 81.3032 28.3266 81.3126C28.4615 81.4119 28.57 81.5166 28.6525 81.6268C28.7353 81.7369 28.8419 81.928 28.9723 82.2002L29.3033 82.8834L28.506 82.7948L28.1044 82.0293C27.9621 81.756 27.863 81.5826 27.8074 81.5092C27.7517 81.4362 27.6901 81.3835 27.6224 81.3512C27.5547 81.3188 27.4439 81.2937 27.291 81.277L27.1557 81.2618L27.0015 82.6284L26.3348 82.5546V82.5544ZM27.2146 80.7398L27.7078 80.7944C28.0276 80.8293 28.2287 80.8387 28.3113 80.8206C28.3938 80.8025 28.4615 80.7635 28.5137 80.7032C28.5662 80.6427 28.5979 80.5633 28.6091 80.4649C28.6215 80.3548 28.6021 80.2629 28.55 80.1888C28.4985 80.1139 28.4195 80.0624 28.3135 80.0325C28.2606 80.0191 28.0986 79.9973 27.8282 79.9671L27.308 79.9099L27.2146 80.7399V80.7398Z" fill="#E83835"/>
<path d="M31.6737 83L31.6029 79.7079L32.2733 79.6938L32.3015 80.9899L33.6157 80.9618L33.5875 79.6658L34.2582 79.652L34.3293 82.9441L33.6583 82.9579L33.6278 81.5186L32.3136 81.5463L32.3441 82.9855L31.6737 83Z" fill="#E83835"/>
<path d="M35.5326 82.8324L35.0049 79.5817L37.4372 79.1935L37.5263 79.7434L35.7566 80.0258L35.8736 80.7465L37.5204 80.4841L37.6093 81.0318L35.9625 81.2942L36.1059 82.1788L37.939 81.8866L38.0276 82.4347L35.5326 82.8324Z" fill="#E83835"/>
<path d="M41.9618 81.2761L41.2665 81.4971L40.7597 80.8727L39.4949 81.2743L39.4644 82.07L38.7868 82.2852L39.005 78.758L39.6805 78.5432L41.9617 81.2763L41.9618 81.2761ZM40.3844 80.4097L39.5717 79.3844L39.5212 80.6837L40.3844 80.4097Z" fill="#E83835"/>
<path d="M43.4395 80.5783L42.2158 78.1254L41.332 78.5584L41.083 78.0593L43.4499 76.8996L43.6993 77.399L42.817 77.8312L44.04 80.2837L43.4393 80.5785L43.4395 80.5783Z" fill="#E83835"/>
<path d="M45.733 79.3707L43.8621 76.6495L45.8984 75.275L46.2145 75.7354L44.7329 76.7356L45.1477 77.3388L46.5264 76.4081L46.8414 76.8663L45.4629 77.7974L45.9718 78.5377L47.506 77.5023L47.8211 77.9602L45.7328 79.3703L45.733 79.3707Z" fill="#E83835"/>
<path d="M48.6741 77.2902L46.4398 74.854L47.4841 73.9127C47.7471 73.6759 47.958 73.5258 48.1174 73.4621C48.2765 73.3985 48.4431 73.3909 48.6175 73.4384C48.7914 73.4853 48.945 73.5813 49.0766 73.7252C49.2441 73.908 49.3289 74.1079 49.3296 74.3245C49.3304 74.5419 49.2373 74.7632 49.0494 74.9882C49.2136 74.954 49.3652 74.9421 49.5026 74.9533C49.6409 74.9645 49.856 75.0115 50.1483 75.0943L50.8847 75.2994L50.2906 75.8343L49.4457 75.6267C49.1443 75.5522 48.9478 75.5115 48.8556 75.5043C48.7633 75.4978 48.6825 75.5086 48.6128 75.5377C48.5438 75.5668 48.4522 75.6323 48.3382 75.7354L48.2373 75.826L49.1702 76.8432L48.6737 77.2902H48.6741ZM47.8813 75.437L48.2484 75.1062C48.4864 74.8918 48.6261 74.7475 48.6672 74.6744C48.7079 74.601 48.7228 74.5247 48.7115 74.4458C48.7006 74.3666 48.6617 74.2907 48.5942 74.218C48.5194 74.1359 48.4365 74.0898 48.3459 74.0788C48.2554 74.0683 48.1636 74.0923 48.0713 74.1518C48.0262 74.1824 47.9029 74.2885 47.7013 74.4695L47.3137 74.8187L47.8813 75.437Z" fill="#E83835"/>
<path d="M0.657924 40.4364L0.987069 40.7625C1.48808 40.0484 1.95844 39.2411 2.39706 38.3402L3.33724 38.8523C2.78879 39.8464 2.24052 40.716 1.69225 41.4614L2.11517 41.9274C2.47533 41.4459 2.86706 40.856 3.29035 40.157L4.13638 40.7625C3.50965 41.7104 2.89862 42.5638 2.30328 43.3251C2.60104 43.3092 2.89862 43.2786 3.19638 43.2312C3.14949 43.0764 3.08655 42.9213 3.00846 42.7656L3.91306 42.3697C4.19495 42.9913 4.44199 43.6157 4.65363 44.2448L3.71345 44.6759C3.63518 44.4197 3.55673 44.2019 3.47846 44.0235C3.27484 44.0623 3.07104 44.0936 2.86742 44.1169V49.2881H1.83346V44.2569C1.3319 44.3267 0.830342 44.3889 0.329145 44.4434L0.000366211 43.5112C0.344836 43.4878 0.689306 43.4565 1.03432 43.418C1.22225 43.2159 1.37898 43.0146 1.50432 42.8126C1.08103 42.2766 0.591512 41.7448 0.0355795 41.2167L0.658289 40.4364H0.657924ZM1.55103 45.0954C1.50414 46.1665 1.39448 47.1296 1.22188 47.9834L0.234817 47.5647C0.391727 46.7023 0.493535 45.8016 0.540425 44.8622L1.55103 45.0954ZM4.18327 44.8508C4.2776 45.6969 4.40258 46.4772 4.55949 47.1917L3.52535 47.5645C3.36862 46.8031 3.25878 45.9958 3.1962 45.1417L4.18309 44.8506L4.18327 44.8508ZM5.96948 42.5791C5.62482 42.9829 5.28017 43.3406 4.93552 43.6509L4.27741 42.7656C5.45241 41.6782 6.34533 40.2655 6.95654 38.5263H8.08465C8.85259 40.2341 9.91775 41.6166 11.2808 42.6724L10.6229 43.5574C10.1214 43.1849 9.68275 42.7811 9.30671 42.346V43.231H5.96948V42.579V42.5791ZM6.25173 49.2879H5.17052V44.4432H10.3409V49.2879H9.25982V48.7289H6.25155L6.25173 49.2879ZM9.21293 42.2531C8.60938 41.6167 8.0571 40.8243 7.5559 39.8773C7.20377 40.7623 6.75311 41.5545 6.20484 42.2531H9.21293ZM9.25982 47.704V45.4678H6.25155V47.704H9.25982Z" fill="#231815"/>
<path d="M16.459 48.543C17.0544 47.3003 17.6183 45.8718 18.1509 44.2569L19.0442 45.0019C18.5583 46.524 18.0412 47.9061 17.4928 49.1485L16.459 48.543ZM18.1983 43.7441C17.728 43.2549 17.1638 42.7583 16.5059 42.2533L17.2113 41.4147C17.8694 41.8963 18.4333 42.3775 18.9031 42.8587L18.1983 43.7441ZM18.1042 38.3869C18.7933 38.9149 19.3731 39.4422 19.8435 39.9704L19.0913 40.8093C18.5585 40.1878 17.9945 39.6597 17.3992 39.225L18.1042 38.3869ZM21.5354 48.4031C22.5535 47.7197 23.3528 46.8188 23.9324 45.7009H23.1335C22.2406 47.0049 21.2062 47.9989 20.0314 48.683L19.3731 47.8908C20.4542 47.3159 21.3316 46.586 22.0057 45.701H21.2064C20.5954 46.26 20.0314 46.6795 19.5145 46.9586L18.8563 46.1665C19.8745 45.6235 20.6738 44.9555 21.2535 44.1636H19.4671V43.1853H27.5521V44.1636H22.4285C22.2875 44.3652 22.1464 44.5518 22.0059 44.7226H27.1292C27.0038 46.3526 26.8626 47.5179 26.7061 48.2166C26.5494 48.9307 26.0951 49.2881 25.343 49.2881H24.3088L23.8859 48.3097H25.1078C25.4056 48.3097 25.5935 48.1546 25.6719 47.8439C25.7661 47.471 25.8601 46.7569 25.9542 45.701H25.014C24.4344 47.1918 23.5256 48.3568 22.2876 49.1951L21.5358 48.4032L21.5354 48.4031ZM26.2357 42.6726H20.6892V38.759H26.2357V42.6726ZM21.7235 40.25H25.2018V39.644H21.7235V40.25ZM25.2018 41.1353H21.7235V41.7878H25.2018V41.1353Z" fill="#231815"/>
<path d="M38.8292 39.8308C40.2388 39.8308 41.3508 40.2498 42.166 41.0883C42.9573 41.8806 43.3531 42.9365 43.3531 44.2569C43.3531 45.5068 42.93 46.5085 42.0839 47.2615C41.3475 47.9136 40.3561 48.325 39.1107 48.496L38.5115 47.3781C39.6706 47.215 40.5559 46.8806 41.1667 46.3761C41.8095 45.8481 42.1308 45.1419 42.1308 44.2569C42.1308 43.2786 41.8371 42.4978 41.2492 41.916C40.7164 41.3723 40.0229 41.0656 39.1696 40.9958C38.958 43.1077 38.5777 44.781 38.0297 46.0153C37.4341 47.3586 36.7014 48.0306 35.832 48.0306C35.1896 48.0306 34.649 47.7275 34.2106 47.1219C33.7871 46.5161 33.5758 45.7783 33.5758 44.9088C33.5758 43.4489 34.05 42.2495 34.9978 41.31C35.9769 40.324 37.254 39.8308 38.8292 39.8308ZM37.9824 41.0422C37.0502 41.1276 36.2787 41.531 35.6678 42.2533C35.0566 42.9753 34.751 43.8452 34.751 44.862C34.751 45.3589 34.8566 45.8016 35.0684 46.1897C35.2878 46.5783 35.5463 46.7723 35.8437 46.7723C36.2354 46.7723 36.631 46.2714 37.0304 45.2698C37.4693 44.175 37.7868 42.7656 37.9824 41.0422Z" fill="#231815"/>
<path d="M60 48.7291H50.9744V49.2881H49.8V38.9918H59.8119V40.0175H50.9744V47.7043H60V48.7293V48.7291ZM55.6282 47.4248V43.8837H53.4901C53.3408 45.3672 52.9177 46.4926 52.2206 47.2615L51.3512 46.4924C52.0407 45.7398 52.3853 44.5283 52.3853 42.8587V41.0883C54.4221 41.0422 56.302 40.8867 58.0255 40.6223L58.6133 41.5081C56.5921 41.7876 54.8921 41.9504 53.5136 41.9972V42.8585H59.295V43.8835H56.7567V47.4246H55.6284L55.6282 47.4248Z" fill="#231815"/>
</g>
<path d="M79.844 54.308C79.6573 53.8973 79.3213 53.412 78.836 52.852C78.3693 52.292 77.912 51.8627 77.464 51.564C79.816 50.612 81.7667 49.2773 83.316 47.56C84.8653 45.824 85.9947 43.6307 86.704 40.98L79.172 41.232L78.892 37.956C79.1347 37.9747 79.6667 37.984 80.488 37.984C81.3093 37.9653 82.3173 37.9467 83.512 37.928C84.7253 37.9093 86.004 37.8813 87.348 37.844C87.5907 36.108 87.7027 34.1947 87.684 32.104L91.156 32.132C91.1747 33.14 91.156 34.1107 91.1 35.044C91.044 35.9773 90.96 36.8827 90.848 37.76C92.1547 37.7227 93.368 37.6853 94.488 37.648C95.6267 37.6107 96.588 37.5733 97.372 37.536C98.156 37.4987 98.6507 37.4707 98.856 37.452C98.856 38.236 98.8093 39.1787 98.716 40.28C98.6227 41.3627 98.5013 42.492 98.352 43.668C98.2027 44.844 98.044 45.9453 97.876 46.972C97.708 47.9987 97.54 48.8293 97.372 49.464C97.0547 50.752 96.6253 51.732 96.084 52.404C95.5427 53.076 94.796 53.5333 93.844 53.776C92.9107 54 91.66 54.1027 90.092 54.084C90.036 53.636 89.896 53.0573 89.672 52.348C89.4667 51.6387 89.2053 51.0507 88.888 50.584C90.0827 50.6027 91.016 50.5747 91.688 50.5C92.36 50.4253 92.864 50.2387 93.2 49.94C93.5547 49.6413 93.8253 49.184 94.012 48.568C94.1987 47.9893 94.376 47.252 94.544 46.356C94.712 45.46 94.8613 44.5173 94.992 43.528C95.1227 42.52 95.216 41.5773 95.272 40.7L90.26 40.868C89.4947 44.06 88.2347 46.7667 86.48 48.988C84.7253 51.2093 82.5133 52.9827 79.844 54.308ZM98.212 36.584C97.876 35.9867 97.428 35.3427 96.868 34.652C96.308 33.9613 95.804 33.4107 95.356 33L96.924 31.824C97.1853 32.0667 97.5027 32.412 97.876 32.86C98.268 33.308 98.6413 33.7653 98.996 34.232C99.3693 34.68 99.6587 35.0627 99.864 35.38L98.212 36.584ZM100.816 34.568C100.592 34.176 100.312 33.7653 99.976 33.336C99.64 32.888 99.2853 32.4587 98.912 32.048C98.5573 31.6373 98.2307 31.3013 97.932 31.04L99.5 29.864C99.7613 30.1067 100.088 30.452 100.48 30.9C100.872 31.3293 101.245 31.7773 101.6 32.244C101.973 32.692 102.263 33.0747 102.468 33.392L100.816 34.568ZM107.928 53.608C107.685 53.1973 107.359 52.7027 106.948 52.124C106.556 51.5453 106.155 51.088 105.744 50.752C107.144 50.136 108.544 49.3707 109.944 48.456C111.344 47.5413 112.679 46.5147 113.948 45.376C115.236 44.2187 116.403 43.0053 117.448 41.736C118.512 40.448 119.408 39.1413 120.136 37.816C119.221 37.872 118.213 37.9373 117.112 38.012C116.029 38.0867 114.947 38.1613 113.864 38.236C112.8 38.292 111.829 38.3573 110.952 38.432C110.093 38.488 109.431 38.5347 108.964 38.572L108.572 35.016C109.039 35.016 109.739 35.0067 110.672 34.988C111.605 34.9693 112.651 34.9413 113.808 34.904C114.965 34.848 116.113 34.792 117.252 34.736C118.409 34.68 119.445 34.6147 120.36 34.54C121.293 34.4467 121.984 34.3627 122.432 34.288L124.7 35.744C124.252 37.0507 123.673 38.3387 122.964 39.608C122.255 40.8587 121.452 42.0627 120.556 43.22C121.209 43.724 121.9 44.2933 122.628 44.928C123.375 45.5627 124.103 46.216 124.812 46.888C125.521 47.56 126.175 48.204 126.772 48.82C127.369 49.436 127.864 49.9867 128.256 50.472C127.789 50.7707 127.295 51.1627 126.772 51.648C126.249 52.1147 125.792 52.5627 125.4 52.992C125.045 52.488 124.588 51.9187 124.028 51.284C123.468 50.6307 122.861 49.9773 122.208 49.324C121.573 48.652 120.929 48.008 120.276 47.392C119.623 46.7573 119.007 46.1973 118.428 45.712C116.879 47.3733 115.199 48.876 113.388 50.22C111.577 51.564 109.757 52.6933 107.928 53.608ZM136.404 56.044V44.536C135.657 44.6293 134.948 44.7133 134.276 44.788C133.604 44.8627 133.007 44.9187 132.484 44.956L132.092 42.1C132.353 42.1 132.652 42.1 132.988 42.1C133.343 42.0813 133.707 42.0627 134.08 42.044C134.397 41.6707 134.733 41.232 135.088 40.728C135.443 40.224 135.797 39.7013 136.152 39.16C135.517 38.6933 134.799 38.1987 133.996 37.676C133.212 37.1347 132.475 36.6867 131.784 36.332L133.24 33.98C133.408 34.0733 133.585 34.176 133.772 34.288C133.977 34.4 134.183 34.5213 134.388 34.652C134.649 34.2227 134.92 33.7467 135.2 33.224C135.48 32.6827 135.741 32.16 135.984 31.656C136.227 31.1333 136.404 30.704 136.516 30.368L139.232 31.376C138.859 32.104 138.42 32.8973 137.916 33.756C137.431 34.6147 136.973 35.38 136.544 36.052C136.749 36.1827 136.945 36.3133 137.132 36.444C137.319 36.5747 137.496 36.696 137.664 36.808C138.112 36.08 138.523 35.3893 138.896 34.736C139.269 34.064 139.549 33.504 139.736 33.056L142.34 34.288C141.985 34.96 141.537 35.7347 140.996 36.612C140.455 37.4893 139.876 38.3853 139.26 39.3C138.663 40.196 138.075 41.036 137.496 41.82C137.944 41.7827 138.373 41.7453 138.784 41.708C139.213 41.652 139.615 41.6147 139.988 41.596C139.876 41.316 139.755 41.0547 139.624 40.812C139.512 40.5507 139.4 40.3173 139.288 40.112L141.668 38.992C141.761 39.16 141.864 39.3467 141.976 39.552C142.088 39.7387 142.191 39.9347 142.284 40.14C142.975 39.6173 143.647 38.9733 144.3 38.208C144.972 37.4427 145.597 36.6213 146.176 35.744C146.755 34.8667 147.259 33.98 147.688 33.084C148.136 32.188 148.472 31.3573 148.696 30.592L151.524 30.928C151.785 31.6747 152.187 32.496 152.728 33.392C153.269 34.288 153.885 35.1747 154.576 36.052C155.285 36.9107 155.995 37.6853 156.704 38.376C157.432 39.0667 158.104 39.5893 158.72 39.944C158.272 40.2427 157.833 40.644 157.404 41.148C156.975 41.6333 156.657 42.044 156.452 42.38C156.153 42.156 155.855 41.9133 155.556 41.652C155.276 41.3907 154.987 41.1107 154.688 40.812V42.884H145.924V40.812C145.663 41.1107 145.401 41.4 145.14 41.68C144.897 41.9413 144.655 42.1747 144.412 42.38C144.207 42.1 143.917 41.7827 143.544 41.428C143.171 41.0547 142.807 40.7467 142.452 40.504C142.769 41.1387 143.068 41.792 143.348 42.464C143.628 43.136 143.843 43.724 143.992 44.228C143.637 44.3587 143.199 44.536 142.676 44.76C142.172 44.9653 141.743 45.1613 141.388 45.348C141.332 45.1427 141.267 44.9187 141.192 44.676C141.117 44.4147 141.033 44.1627 140.94 43.92C140.697 43.9573 140.436 44.004 140.156 44.06C139.895 44.0973 139.615 44.1347 139.316 44.172V56.044H136.404ZM144.888 55.316V45.236H156.06V55.316H144.888ZM148.164 52.544H152.812V47.98H148.164V52.544ZM146.484 40.14H154.044C153.241 39.2627 152.485 38.3293 151.776 37.34C151.085 36.332 150.525 35.38 150.096 34.484C149.76 35.2307 149.265 36.1267 148.612 37.172C147.959 38.2173 147.249 39.2067 146.484 40.14ZM134.136 53.188C133.8 53.0387 133.38 52.8987 132.876 52.768C132.372 52.6187 131.952 52.516 131.616 52.46C131.896 51.956 132.167 51.3307 132.428 50.584C132.708 49.8373 132.951 49.0627 133.156 48.26C133.361 47.4573 133.511 46.72 133.604 46.048L136.068 46.524C135.975 47.196 135.825 47.952 135.62 48.792C135.415 49.632 135.181 50.444 134.92 51.228C134.659 52.012 134.397 52.6653 134.136 53.188ZM141.332 52.348C141.22 52.0307 141.08 51.62 140.912 51.116C140.763 50.5933 140.604 50.0333 140.436 49.436C140.268 48.8387 140.109 48.26 139.96 47.7C139.829 47.1213 139.717 46.636 139.624 46.244L142.116 45.6C142.191 45.936 142.303 46.3653 142.452 46.888C142.601 47.392 142.76 47.9333 142.928 48.512C143.115 49.072 143.292 49.604 143.46 50.108C143.647 50.5933 143.805 50.9947 143.936 51.312C143.581 51.4053 143.143 51.5547 142.62 51.76C142.097 51.9467 141.668 52.1427 141.332 52.348ZM172.888 56.436C172.645 56.1373 172.328 55.8013 171.936 55.428C171.544 55.0547 171.18 54.7747 170.844 54.588C171.852 54.0653 172.795 53.412 173.672 52.628C174.568 51.844 175.361 51.004 176.052 50.108C176.761 49.1933 177.321 48.316 177.732 47.476H176.304C175.389 49.0627 174.176 50.528 172.664 51.872C171.171 53.1973 169.537 54.2707 167.764 55.092C167.652 54.924 167.484 54.7 167.26 54.42C167.055 54.1587 166.831 53.9067 166.588 53.664C166.364 53.4027 166.159 53.216 165.972 53.104C166.961 52.6747 167.932 52.1613 168.884 51.564C169.836 50.948 170.713 50.2947 171.516 49.604C172.337 48.8947 173.028 48.1853 173.588 47.476H171.992C171.264 48.2227 170.48 48.9133 169.64 49.548C168.819 50.1827 167.979 50.7333 167.12 51.2C166.971 50.9387 166.747 50.6213 166.448 50.248C166.168 49.8747 165.897 49.5667 165.636 49.324C165.188 50.444 164.703 51.5827 164.18 52.74C163.657 53.8787 163.181 54.8307 162.752 55.596L159.812 53.944C160.204 53.3653 160.605 52.684 161.016 51.9C161.427 51.0973 161.819 50.2667 162.192 49.408C162.584 48.5307 162.929 47.6813 163.228 46.86C163.527 46.0387 163.76 45.3013 163.928 44.648C164.283 44.928 164.731 45.2453 165.272 45.6C165.813 45.936 166.271 46.2067 166.644 46.412C166.551 46.7667 166.429 47.1587 166.28 47.588C166.131 47.9987 165.963 48.4373 165.776 48.904C166.933 48.3067 168.035 47.5693 169.08 46.692C170.144 45.8147 171.049 44.8907 171.796 43.92H166.896V41.54H185.684V43.92H174.792C174.661 44.1253 174.531 44.3307 174.4 44.536C174.269 44.7227 174.129 44.9187 173.98 45.124H184.592C184.592 45.6653 184.573 46.3187 184.536 47.084C184.499 47.8493 184.433 48.652 184.34 49.492C184.265 50.3133 184.163 51.0973 184.032 51.844C183.92 52.572 183.771 53.1787 183.584 53.664C183.248 54.56 182.8 55.176 182.24 55.512C181.699 55.8667 180.924 56.044 179.916 56.044H177.928C177.891 55.5773 177.807 55.0547 177.676 54.476C177.545 53.8973 177.377 53.4307 177.172 53.076H179.216C179.645 53.076 179.972 53.02 180.196 52.908C180.42 52.7773 180.616 52.516 180.784 52.124C180.915 51.8067 181.036 51.368 181.148 50.808C181.26 50.2293 181.353 49.632 181.428 49.016C181.521 48.4 181.577 47.8867 181.596 47.476H180.42C179.692 49.2867 178.684 50.9853 177.396 52.572C176.108 54.1587 174.605 55.4467 172.888 56.436ZM170.004 40.476V31.096H182.66V40.476H170.004ZM164.824 42.94C164.488 42.6413 164.049 42.3053 163.508 41.932C162.967 41.54 162.407 41.1667 161.828 40.812C161.249 40.4387 160.717 40.1493 160.232 39.944L161.884 37.312C162.369 37.536 162.901 37.816 163.48 38.152C164.059 38.488 164.628 38.8427 165.188 39.216C165.748 39.5707 166.233 39.916 166.644 40.252C166.495 40.42 166.289 40.6813 166.028 41.036C165.785 41.3907 165.552 41.7453 165.328 42.1C165.104 42.4547 164.936 42.7347 164.824 42.94ZM166.532 36.668C166.215 36.3507 165.795 35.996 165.272 35.604C164.749 35.212 164.199 34.8387 163.62 34.484C163.041 34.1107 162.519 33.812 162.052 33.588L163.788 31.096C164.217 31.3013 164.721 31.5813 165.3 31.936C165.897 32.2907 166.485 32.664 167.064 33.056C167.643 33.4293 168.109 33.7747 168.464 34.092C168.315 34.26 168.109 34.512 167.848 34.848C167.587 35.1653 167.335 35.492 167.092 35.828C166.849 36.164 166.663 36.444 166.532 36.668ZM173.112 38.208H179.58V36.92H173.112V38.208ZM173.112 34.764H179.58V33.504H173.112V34.764ZM190.696 55.736V49.492C190.36 49.6227 190.024 49.7533 189.688 49.884C189.352 49.996 189.007 50.108 188.652 50.22C188.54 49.8467 188.335 49.3987 188.036 48.876C187.756 48.3533 187.485 47.9333 187.224 47.616C188.885 47.1307 190.407 46.5613 191.788 45.908C193.169 45.2547 194.383 44.4987 195.428 43.64H188.4V40.952H197.892C198.06 40.6907 198.219 40.4293 198.368 40.168C198.517 39.9067 198.657 39.636 198.788 39.356H190.444V31.068H199.74V38.04L202.12 38.46C201.989 38.908 201.84 39.3373 201.672 39.748C201.523 40.1587 201.345 40.56 201.14 40.952H213.6V43.64H206.684C207.86 44.6107 209.157 45.4133 210.576 46.048C211.995 46.664 213.413 47.1213 214.832 47.42C214.552 47.756 214.253 48.2227 213.936 48.82C213.637 49.3987 213.441 49.9027 213.348 50.332C212.993 50.2387 212.648 50.136 212.312 50.024C211.976 49.8933 211.64 49.7627 211.304 49.632V55.736H202.148V47.252H206.712C206.021 46.7667 205.349 46.2253 204.696 45.628C204.043 45.012 203.445 44.3493 202.904 43.64H199.348C198.769 44.3307 198.125 44.984 197.416 45.6C196.707 46.1973 195.951 46.748 195.148 47.252H199.852V55.736H190.696ZM202.26 39.356V31.068H211.528V39.356H202.26ZM193.748 53.216H196.8V49.772H193.748V53.216ZM205.2 53.216H208.252V49.772H205.2V53.216ZM193.552 36.836H196.632V33.588H193.552V36.836ZM205.368 36.836H208.42V33.588H205.368V36.836ZM229.56 56.156C229.523 55.708 229.429 55.1573 229.28 54.504C229.131 53.8507 228.981 53.3373 228.832 52.964H231.464C231.837 52.964 232.108 52.908 232.276 52.796C232.444 52.6653 232.528 52.4133 232.528 52.04V49.884H224.688C225.323 50.332 225.985 50.8453 226.676 51.424C227.367 52.0027 227.927 52.5347 228.356 53.02C228.001 53.3187 227.572 53.7107 227.068 54.196C226.583 54.7 226.209 55.1387 225.948 55.512C225.631 55.12 225.229 54.6907 224.744 54.224C224.259 53.7573 223.755 53.3093 223.232 52.88C222.728 52.4507 222.252 52.096 221.804 51.816L223.624 49.884H216.12V47.14H232.528V45.992H219.536V36.136H227.46V34.904H216.54V32.3H227.46V30.452H230.708V32.3H241.46V34.904H230.708V36.136H238.604V45.992H235.888V47.14H241.712V49.884H235.888V53.216C235.888 54.2427 235.599 54.9893 235.02 55.456C234.441 55.9227 233.555 56.156 232.36 56.156H229.56ZM222.896 43.528H227.46V42.072H222.896V43.528ZM230.708 43.528H235.272V42.072H230.708V43.528ZM222.896 40.056H227.46V38.6H222.896V40.056ZM230.708 40.056H235.272V38.6H230.708V40.056ZM263.104 55.932C263.085 55.6333 263.039 55.2787 262.964 54.868C262.889 54.476 262.805 54.0933 262.712 53.72C262.619 53.328 262.516 53.0107 262.404 52.768H264.532C264.905 52.768 265.176 52.7027 265.344 52.572C265.512 52.4413 265.596 52.2173 265.596 51.9V42.016H257.98V31.236H268.872V53.104C268.872 54.0747 268.611 54.784 268.088 55.232C267.565 55.6987 266.725 55.932 265.568 55.932H263.104ZM245.184 55.96V31.236H256.02V42.016H248.432V55.96H245.184ZM261.116 39.468H265.596V37.76H261.116V39.468ZM261.116 35.436H265.596V33.728H261.116V35.436ZM248.432 39.468H252.884V37.76H248.432V39.468ZM248.432 35.436H252.884V33.728H248.432V35.436ZM279.092 56.016V45.628H284.44V36.696H277.44V42.52C277.44 45.3013 277.197 47.784 276.712 49.968C276.245 52.152 275.527 54.084 274.556 55.764C274.183 55.5587 273.697 55.3253 273.1 55.064C272.503 54.8213 271.98 54.644 271.532 54.532C272.409 52.908 273.063 51.1347 273.492 49.212C273.94 47.2893 274.164 45.0493 274.164 42.492V33.672H283.74V30.508H287.324V33.672H297.376V36.696H287.996V39.804H296.396V42.66H287.996V45.628H294.94V56.016H279.092ZM282.368 53.16H291.664V48.456H282.368V53.16ZM316.808 45.04V30.312H325.404V32.132H318.768V45.04H316.808ZM332.404 56.044V44.536C331.657 44.6293 330.948 44.7133 330.276 44.788C329.604 44.8627 329.007 44.9187 328.484 44.956L328.092 42.1C328.353 42.1 328.652 42.1 328.988 42.1C329.343 42.0813 329.707 42.0627 330.08 42.044C330.397 41.6707 330.733 41.232 331.088 40.728C331.443 40.224 331.797 39.7013 332.152 39.16C331.517 38.6933 330.799 38.1987 329.996 37.676C329.212 37.1347 328.475 36.6867 327.784 36.332L329.24 33.98C329.408 34.0733 329.585 34.176 329.772 34.288C329.977 34.4 330.183 34.5213 330.388 34.652C330.649 34.2227 330.92 33.7467 331.2 33.224C331.48 32.6827 331.741 32.16 331.984 31.656C332.227 31.1333 332.404 30.704 332.516 30.368L335.232 31.376C334.859 32.104 334.42 32.8973 333.916 33.756C333.431 34.6147 332.973 35.38 332.544 36.052C332.749 36.1827 332.945 36.3133 333.132 36.444C333.319 36.5747 333.496 36.696 333.664 36.808C334.112 36.08 334.523 35.3893 334.896 34.736C335.269 34.064 335.549 33.504 335.736 33.056L338.34 34.288C337.985 34.96 337.537 35.7347 336.996 36.612C336.455 37.4893 335.876 38.3853 335.26 39.3C334.663 40.196 334.075 41.036 333.496 41.82C333.944 41.7827 334.373 41.7453 334.784 41.708C335.213 41.652 335.615 41.6147 335.988 41.596C335.876 41.316 335.755 41.0547 335.624 40.812C335.512 40.5507 335.4 40.3173 335.288 40.112L337.668 38.992C337.761 39.16 337.864 39.3467 337.976 39.552C338.088 39.7387 338.191 39.9347 338.284 40.14C338.975 39.6173 339.647 38.9733 340.3 38.208C340.972 37.4427 341.597 36.6213 342.176 35.744C342.755 34.8667 343.259 33.98 343.688 33.084C344.136 32.188 344.472 31.3573 344.696 30.592L347.524 30.928C347.785 31.6747 348.187 32.496 348.728 33.392C349.269 34.288 349.885 35.1747 350.576 36.052C351.285 36.9107 351.995 37.6853 352.704 38.376C353.432 39.0667 354.104 39.5893 354.72 39.944C354.272 40.2427 353.833 40.644 353.404 41.148C352.975 41.6333 352.657 42.044 352.452 42.38C352.153 42.156 351.855 41.9133 351.556 41.652C351.276 41.3907 350.987 41.1107 350.688 40.812V42.884H341.924V40.812C341.663 41.1107 341.401 41.4 341.14 41.68C340.897 41.9413 340.655 42.1747 340.412 42.38C340.207 42.1 339.917 41.7827 339.544 41.428C339.171 41.0547 338.807 40.7467 338.452 40.504C338.769 41.1387 339.068 41.792 339.348 42.464C339.628 43.136 339.843 43.724 339.992 44.228C339.637 44.3587 339.199 44.536 338.676 44.76C338.172 44.9653 337.743 45.1613 337.388 45.348C337.332 45.1427 337.267 44.9187 337.192 44.676C337.117 44.4147 337.033 44.1627 336.94 43.92C336.697 43.9573 336.436 44.004 336.156 44.06C335.895 44.0973 335.615 44.1347 335.316 44.172V56.044H332.404ZM340.888 55.316V45.236H352.06V55.316H340.888ZM344.164 52.544H348.812V47.98H344.164V52.544ZM342.484 40.14H350.044C349.241 39.2627 348.485 38.3293 347.776 37.34C347.085 36.332 346.525 35.38 346.096 34.484C345.76 35.2307 345.265 36.1267 344.612 37.172C343.959 38.2173 343.249 39.2067 342.484 40.14ZM330.136 53.188C329.8 53.0387 329.38 52.8987 328.876 52.768C328.372 52.6187 327.952 52.516 327.616 52.46C327.896 51.956 328.167 51.3307 328.428 50.584C328.708 49.8373 328.951 49.0627 329.156 48.26C329.361 47.4573 329.511 46.72 329.604 46.048L332.068 46.524C331.975 47.196 331.825 47.952 331.62 48.792C331.415 49.632 331.181 50.444 330.92 51.228C330.659 52.012 330.397 52.6653 330.136 53.188ZM337.332 52.348C337.22 52.0307 337.08 51.62 336.912 51.116C336.763 50.5933 336.604 50.0333 336.436 49.436C336.268 48.8387 336.109 48.26 335.96 47.7C335.829 47.1213 335.717 46.636 335.624 46.244L338.116 45.6C338.191 45.936 338.303 46.3653 338.452 46.888C338.601 47.392 338.76 47.9333 338.928 48.512C339.115 49.072 339.292 49.604 339.46 50.108C339.647 50.5933 339.805 50.9947 339.936 51.312C339.581 51.4053 339.143 51.5547 338.62 51.76C338.097 51.9467 337.668 52.1427 337.332 52.348ZM368.888 56.436C368.645 56.1373 368.328 55.8013 367.936 55.428C367.544 55.0547 367.18 54.7747 366.844 54.588C367.852 54.0653 368.795 53.412 369.672 52.628C370.568 51.844 371.361 51.004 372.052 50.108C372.761 49.1933 373.321 48.316 373.732 47.476H372.304C371.389 49.0627 370.176 50.528 368.664 51.872C367.171 53.1973 365.537 54.2707 363.764 55.092C363.652 54.924 363.484 54.7 363.26 54.42C363.055 54.1587 362.831 53.9067 362.588 53.664C362.364 53.4027 362.159 53.216 361.972 53.104C362.961 52.6747 363.932 52.1613 364.884 51.564C365.836 50.948 366.713 50.2947 367.516 49.604C368.337 48.8947 369.028 48.1853 369.588 47.476H367.992C367.264 48.2227 366.48 48.9133 365.64 49.548C364.819 50.1827 363.979 50.7333 363.12 51.2C362.971 50.9387 362.747 50.6213 362.448 50.248C362.168 49.8747 361.897 49.5667 361.636 49.324C361.188 50.444 360.703 51.5827 360.18 52.74C359.657 53.8787 359.181 54.8307 358.752 55.596L355.812 53.944C356.204 53.3653 356.605 52.684 357.016 51.9C357.427 51.0973 357.819 50.2667 358.192 49.408C358.584 48.5307 358.929 47.6813 359.228 46.86C359.527 46.0387 359.76 45.3013 359.928 44.648C360.283 44.928 360.731 45.2453 361.272 45.6C361.813 45.936 362.271 46.2067 362.644 46.412C362.551 46.7667 362.429 47.1587 362.28 47.588C362.131 47.9987 361.963 48.4373 361.776 48.904C362.933 48.3067 364.035 47.5693 365.08 46.692C366.144 45.8147 367.049 44.8907 367.796 43.92H362.896V41.54H381.684V43.92H370.792C370.661 44.1253 370.531 44.3307 370.4 44.536C370.269 44.7227 370.129 44.9187 369.98 45.124H380.592C380.592 45.6653 380.573 46.3187 380.536 47.084C380.499 47.8493 380.433 48.652 380.34 49.492C380.265 50.3133 380.163 51.0973 380.032 51.844C379.92 52.572 379.771 53.1787 379.584 53.664C379.248 54.56 378.8 55.176 378.24 55.512C377.699 55.8667 376.924 56.044 375.916 56.044H373.928C373.891 55.5773 373.807 55.0547 373.676 54.476C373.545 53.8973 373.377 53.4307 373.172 53.076H375.216C375.645 53.076 375.972 53.02 376.196 52.908C376.42 52.7773 376.616 52.516 376.784 52.124C376.915 51.8067 377.036 51.368 377.148 50.808C377.26 50.2293 377.353 49.632 377.428 49.016C377.521 48.4 377.577 47.8867 377.596 47.476H376.42C375.692 49.2867 374.684 50.9853 373.396 52.572C372.108 54.1587 370.605 55.4467 368.888 56.436ZM366.004 40.476V31.096H378.66V40.476H366.004ZM360.824 42.94C360.488 42.6413 360.049 42.3053 359.508 41.932C358.967 41.54 358.407 41.1667 357.828 40.812C357.249 40.4387 356.717 40.1493 356.232 39.944L357.884 37.312C358.369 37.536 358.901 37.816 359.48 38.152C360.059 38.488 360.628 38.8427 361.188 39.216C361.748 39.5707 362.233 39.916 362.644 40.252C362.495 40.42 362.289 40.6813 362.028 41.036C361.785 41.3907 361.552 41.7453 361.328 42.1C361.104 42.4547 360.936 42.7347 360.824 42.94ZM362.532 36.668C362.215 36.3507 361.795 35.996 361.272 35.604C360.749 35.212 360.199 34.8387 359.62 34.484C359.041 34.1107 358.519 33.812 358.052 33.588L359.788 31.096C360.217 31.3013 360.721 31.5813 361.3 31.936C361.897 32.2907 362.485 32.664 363.064 33.056C363.643 33.4293 364.109 33.7747 364.464 34.092C364.315 34.26 364.109 34.512 363.848 34.848C363.587 35.1653 363.335 35.492 363.092 35.828C362.849 36.164 362.663 36.444 362.532 36.668ZM369.112 38.208H375.58V36.92H369.112V38.208ZM369.112 34.764H375.58V33.504H369.112V34.764ZM399.156 54.252C399.081 53.9533 398.941 53.5987 398.736 53.188C398.531 52.7773 398.288 52.3853 398.008 52.012C397.747 51.62 397.485 51.3027 397.224 51.06C399.781 50.668 401.723 49.8373 403.048 48.568C404.392 47.28 405.101 45.768 405.176 44.032C405.251 42.6507 404.999 41.4187 404.42 40.336C403.841 39.2533 403.048 38.376 402.04 37.704C401.051 37.032 399.959 36.6307 398.764 36.5C398.615 38.236 398.335 40.0093 397.924 41.82C397.513 43.6307 396.953 45.3293 396.244 46.916C395.553 48.5027 394.704 49.8467 393.696 50.948C392.931 51.7693 392.184 52.2453 391.456 52.376C390.747 52.5067 389.991 52.404 389.188 52.068C388.404 51.732 387.713 51.2 387.116 50.472C386.519 49.744 386.061 48.8853 385.744 47.896C385.427 46.888 385.296 45.8147 385.352 44.676C385.445 42.9773 385.847 41.428 386.556 40.028C387.265 38.6093 388.217 37.3867 389.412 36.36C390.607 35.3333 391.979 34.5587 393.528 34.036C395.077 33.5133 396.729 33.2987 398.484 33.392C399.903 33.4667 401.237 33.784 402.488 34.344C403.739 34.904 404.831 35.6787 405.764 36.668C406.716 37.6387 407.444 38.768 407.948 40.056C408.471 41.344 408.685 42.7533 408.592 44.284C408.461 46.8413 407.565 48.988 405.904 50.724C404.243 52.4413 401.993 53.6173 399.156 54.252ZM390.056 48.596C390.261 48.7453 390.476 48.82 390.7 48.82C390.924 48.82 391.148 48.708 391.372 48.484C392.044 47.812 392.66 46.86 393.22 45.628C393.799 44.396 394.275 43.0053 394.648 41.456C395.04 39.9067 395.292 38.3293 395.404 36.724C394.116 37.0227 392.968 37.564 391.96 38.348C390.971 39.132 390.187 40.084 389.608 41.204C389.029 42.3053 388.703 43.5187 388.628 44.844C388.591 45.7213 388.703 46.4867 388.964 47.14C389.244 47.7747 389.608 48.26 390.056 48.596ZM413.268 55.456V31.46H437.292V34.344H416.572V49.828C417.673 48.7453 418.429 47.5227 418.84 46.16C419.251 44.7973 419.456 43.2387 419.456 41.484V36.36C420.557 36.3413 421.724 36.2947 422.956 36.22C424.188 36.1267 425.411 36.0053 426.624 35.856C427.856 35.688 429.023 35.492 430.124 35.268C431.225 35.0253 432.196 34.764 433.036 34.484L434.856 37.172C433.176 37.676 431.281 38.0867 429.172 38.404C427.081 38.7213 424.897 38.9267 422.62 39.02V40.784H436.62V43.696H430.46V51.648H427.24V43.696H422.536C422.424 45.3387 422.116 46.8133 421.612 48.12C421.108 49.408 420.315 50.64 419.232 51.816C418.896 51.5173 418.467 51.2 417.944 50.864C417.421 50.528 416.964 50.2667 416.572 50.08V52.376H437.488V55.456H413.268ZM440.596 56.408V54.588H447.232V41.68H449.192V56.408H440.596Z" fill="#0BA29B"/>
<defs>
<clipPath id="clip0_6002_7">
<rect width="60" height="83" fill="white"/>
</clipPath>
</defs>
</svg>
